<?xml version="1.0" encoding="utf-8"?>
<!-- Generator: Adobe Illustrator 19.0.0, SVG Export Plug-In . SVG Version: 6.00 Build 0)  -->
<svg version="1.1" id="Layer_1" xmlns="http://www.w3.org/2000/svg" xmlns:xlink="http://www.w3.org/1999/xlink" x="0px" y="0px"
	 viewBox="100 -100 300 300" style="enable-background:new 100 -100 300 300;" xml:space="preserve">
<style type="text/css">
	.st0{fill:none;stroke:#FCBF00;stroke-width:4;stroke-miterlimit:10;}
</style>
<path id="XMLID_6_" class="st0" d="M337,101l0.3,19.5c0,14.7-12.1,26.8-26.8,26.8H180.6c-14.7,0-26.8-12.1-26.8-26.8L155-21.2
	c0-14.7,12.1-26.8,26.8-26.8h129.9c14.7,0,26.8,12.1,26.8,26.8v19.9"/>
<path id="XMLID_3_" class="st0" d="M278.5,13.5l0.4-30.5c0.1-4.8,5.6-7.3,9.3-4.3L362.7,41c1.9,1.6,1.9,4.5,0,6l-74.3,62
	c-3.8,3.2-9.6,0.5-9.6-4.4l-0.2-30.5l-63.2,0.2c-4.2,0-7.6-3.4-7.6-7.6l-0.2-44.5c0-4.8,3.9-8.7,8.7-8.7
	C216.3,13.5,278.5,13.5,278.5,13.5z"/>
</svg>
