<?xml version="1.0" encoding="utf-8"?>
<!-- Generator: Adobe Illustrator 19.0.0, SVG Export Plug-In . SVG Version: 6.00 Build 0)  -->
<svg version="1.1" id="Layer_1" xmlns="http://www.w3.org/2000/svg" xmlns:xlink="http://www.w3.org/1999/xlink" x="0px" y="0px"
	 viewBox="-147 246.7 300 300" style="enable-background:new -147 246.7 300 300;" xml:space="preserve">
<style type="text/css">
	.st0{fill:none;stroke:#000000;stroke-width:3;stroke-miterlimit:10;}
</style>
<g id="XMLID_1_">
	<path id="XMLID_19_" class="st0" d="M-136.1,413.2c23.2,0,23.2,12,46.4,12s23.2-12,46.4-12s23.2,12,46.4,12s23.2-12,46.4-12
		s23.2,12,46.4,12s23.2-12,46.4-12"/>
</g>
<path id="XMLID_17_" class="st0" d="M-75.8,422.8"/>
<path id="XMLID_16_" class="st0" d="M-75.8,422.8c-8.1-7.2-13.1-17.7-13.1-29.3c0-21.7,17.6-39.2,39.2-39.2s39.3,17.6,39.3,39.2
	c0,2.5-0.2,4.9-0.7,7.3c-1.3,7-4.5,13.4-9,18.5"/>
<path id="XMLID_3_" class="st0" d="M-3.6,396.7c0.3-5,63.9-37.9,71-38.2c7.2-0.3,64.5,31.8,69.7,35.5c9.5,8.7-0.1,17-5.2,17.2
	c-5.2,0.2-56.4-21.6-61.7-21.6c-5.3,0-43.2,26.3-52.9,26.8S-3.9,401.6-3.6,396.7z"/>
<ellipse id="XMLID_7_" transform="matrix(-0.493 0.87 -0.87 -0.493 247.6067 606.2382)" class="st0" cx="-52.8" cy="375.3" rx="11.5" ry="6.8"/>
<ellipse id="XMLID_12_" transform="matrix(-0.493 0.87 -0.87 -0.493 246.7418 664.2283)" class="st0" cx="-70.2" cy="404" rx="11.5" ry="6.8"/>
<line id="XMLID_13_" class="st0" x1="-47.2" y1="365.2" x2="-32" y2="358.4"/>
<path id="XMLID_14_" class="st0" d="M-64.5,394c0,0-0.8-5.7,6-8.7"/>
<line id="XMLID_15_" class="st0" x1="-75.8" y1="414" x2="-77" y2="421.7"/>
</svg>
