<?xml version="1.0" encoding="utf-8"?>
<!-- Generator: Adobe Illustrator 19.0.0, SVG Export Plug-In . SVG Version: 6.00 Build 0)  -->
<svg version="1.1" id="Layer_1" xmlns="http://www.w3.org/2000/svg" xmlns:xlink="http://www.w3.org/1999/xlink" x="0px" y="0px"
	 viewBox="0 0 300 300" style="enable-background:new 0 0 300 300;" xml:space="preserve">
<style type="text/css">
	.st0{fill:none;stroke:#FFFFFF;stroke-width:2;stroke-miterlimit:10;}
</style>
<g id="XMLID_1_">
	<path id="XMLID_84_" class="st0" d="M159.9,192c-9.4,8.7-18.4,17.7-26.9,27.2c-2.9,3.2-1.7,8-1.8,12.1
		c-0.1,15.3-10.8,27.4-25.9,29.1c-1.2,0.1-2.3,0.2-3.5,0.1c-2.3-0.2-5.1,0.1-6.1-2.5c-0.9-2.4,1.5-3.8,2.9-5.3
		c4.4-4.6,8.7-9.2,13.3-13.5c2.5-2.4,3.1-4.3,0.3-7c-5.2-4.9-10.2-10-15.2-15.2c-2.8-2.9-5.2-3-8-0.1c-4.5,4.6-9.2,9.2-13.8,13.7
		c-1.3,1.3-3,2.9-4.7,2.2c-2-0.7-2.2-3.1-2.4-5.1c-1.2-15.5,12.2-30.8,27.7-30.4c8.5,0.2,14.8-2,20.3-8.5c5.4-6.5,12-12,18-18
		c1-1,3.7-4.1,4.3-4.6c7.3-7.3,14.5-14.7,21.8-22.1c10-8.3,18.4-18.3,27.7-27.3c1.7-1.7,1.3-4,1.2-6.2c-0.4-6.8,0.6-13.2,3.9-19.3
		C198.6,80.7,210,74.7,222,76c1.5,0.2,3.1,0.3,3.7,2c0.5,1.6-0.7,2.9-1.7,3.9c-4.6,4.8-9.1,9.7-14,14.2c-3.4,3.2-3.7,5.7-0.2,9
		c5.2,4.9,10.2,10,15.2,15.2c2.2,2.2,3.8,2.3,6.1-0.1c4.9-5.2,10.1-10.1,15.3-15.1c1.3-1.3,2.6-3,4.7-2c1.9,0.9,1.8,3,1.9,4.8
		c1.2,17.7-14.6,33.2-32.7,31.4c-5.4-0.5-9.2,0.9-12.8,4.8c-6.4,6.8-13.1,13.2-19.7,19.9c-1.1,1.1-4.5,4.4-5,5
		C175,176.6,167.5,184.3,159.9,192z"/>
	<path id="XMLID_83_" class="st0" d="M160,144.1c-7.3,7.4-14.5,14.8-21.8,22.1c-0.5,0.5-0.9,1-1.5,1.7c-13.1-13.7-26.9-28.1-40-41.9
		c-4.5-4.8-5.4-5-10-0.6c-3.4,3.3-7.3,6.5-5.6,12.3c0.5,1.5-0.5,3.2-1.7,4.5c-3.3,3.3-6.6,6.6-9.8,10c-2.6,2.7-5.1,2.7-7.7,0
		c-7.4-7.5-14.8-14.9-22.3-22.3c-2.7-2.6-2.8-5.1-0.2-7.8c3.5-3.5,7.1-7.1,10.7-10.6c2-2,4.4-2.6,6.7-0.5c2.1,1.9,3.4,1.6,5.1-0.5
		c1.9-2.3,4.2-4.3,6.3-6.4c2.3-2.2,4.3-4.2,1.1-7.4c-1.7-1.7-0.6-3.8,0.9-5.3c4.7-4.7,9.5-9.4,14.2-14c1.7-1.7,3.4-2.2,5.1,0
		c2.1,2.7,3.8,1.7,5.7-0.2c3.3-3.3,6.6-6.6,10-9.8c11.9-11.2,24.9-12.3,38.7-3.6c4.7,3,8.7,6.7,12.1,11.1c2,2.5,1.4,4.4-2.1,4.6
		c-2.7,0.1-5.3,0.2-8,0c-8.5-0.5-15.7,2.1-21.5,8.5c-1.8,2-3.9,3.7-5.7,5.6c-5.8,6.2-5.7,6.2,0.6,12.1
		C132.9,118.5,146.5,131.3,160,144.1z"/>
	<path id="XMLID_82_" class="st0" d="M159.9,192c7.6-7.7,15.1-15.4,22.7-23.1c0.5-0.5,1-1.1,1.6-1.6c20,19.1,40.6,38.8,60.6,57.9
		c3.1,3,3.5,5.7,0.3,8.9c-6.2,6.1-12.3,12.2-18.3,18.4c-3.2,3.3-6.1,3.2-9.3-0.2C198.3,232.2,179.1,212.1,159.9,192z"/>
</g>
</svg>
