<?xml version="1.0" encoding="utf-8"?>
<!-- Generator: Adobe Illustrator 19.0.0, SVG Export Plug-In . SVG Version: 6.00 Build 0)  -->
<svg version="1.1" id="Layer_1" xmlns="http://www.w3.org/2000/svg" xmlns:xlink="http://www.w3.org/1999/xlink" x="0px" y="0px"
	 viewBox="8 325.7 612 143" style="enable-background:new 8 325.7 612 143;" xml:space="preserve">
<style type="text/css">
	.st0{fill:#00AFDB;}
	.st1{fill:#18214C;}
</style>
<path class="st0" d="M620,345.8c-10.6,2.7-39.2,8.2-42.7,8.9c-14.3,2.8-28.7,5.5-43.3,8c-16.7,2.9-33.6,5.5-50.7,7.7
	c-58.5,7.4-117.7,7.6-174.9-2.5c-10.5-1.9-21.1-3.7-31.8-5.4c-20.2-3.2-40.8-6-61.8-7.8c-59.4-5.1-119.1-1-171,14.3
	c-12.7,3.7-24.7,8-35.9,12.7v87h612L620,345.8z"/>
<path class="st1" d="M8,403v3.2c55.1-27.7,131-37.4,202.6-25.9c29.1,4.7,56.9,11.6,83.9,18.4c42.7,10.7,86.9,21.7,136.9,23.9
	c22.3,1,47.6-0.2,69.4-3.3c39.9-5.7,80.8-16.1,119.3-30.5v-3.1c-38.3,14.3-80,25-119.7,30.7c-21.6,3.1-46.7,4.3-68.8,3.3
	c-49.7-2.2-93.7-13.2-136.3-23.8c-27-6.7-55-13.7-84.2-18.4C138.9,365.9,63.6,375.1,8,403z"/>
<path class="st1" d="M91.9,351.2c-30.5,0.1-59.8,5.1-83.9,14.5v2.1c23.9-9.3,53.7-14.5,83.9-14.6c64.2-0.4,120.8,13,175.5,26
	c34.9,8.3,71,16.8,108.9,21.8c28.9,3.8,57.4,5.1,84.7,3.8c35.6-1.7,86.8-7.2,128.3-23.9c11.3-4.5,21.5-9.5,30.7-15.2v-2.2
	c-9.2,5.6-20.3,11.1-31.5,15.6c-41.2,16.6-92.1,22-127.6,23.7c-27.2,1.3-55.6,0-84.3-3.7c-37.9-5-73.9-13.5-108.7-21.8
	C213.1,364.2,156.4,350.8,91.9,351.2z"/>
<path class="st1" d="M8,371.9v1.2c38-19,99.2-24.6,160-14.6c26.9,4.4,53.5,11,79.1,19.5l16.3,5.5c32.4,11.1,65.9,22.6,106.7,26.4
	c69.8,6.5,153.7-3.2,224.5-26.1c8.8-2.8,17.1-5.8,25.5-9v-1c-8.3,3.2-17.1,6.2-25.8,9.1c-70.7,22.8-154.4,32.5-224.1,26
	c-40.7-3.7-74.2-15.2-106.5-26.3l-16.3-5.5c-25.6-8.6-52.3-15.2-79.2-19.6C107.1,347.5,46.1,352.9,8,371.9z"/>
<g>
	<g>
		<ellipse class="st0" cx="128.1" cy="338.6" rx="8.7" ry="6.8"/>
		<path class="st0" d="M164,328.1c-0.5,0.2-1,0.5-1.6,0.7c-1.3,0.6-2.6,1.2-3.9,1.8c-1.7,0.8-3.3,1.5-5,2.3
			c-1.6,0.8-3.3,1.5-4.9,2.3c-1.4,0.6-2.8,1.3-4.2,1.9c-0.8,0.4-1.7,0.8-2,1.7c-0.4,1,0.3,1.8,0.9,2.4c0.9,0.9,1.8,2,3.1,2.4
			c1.4,0.5,3,0.3,4.4-0.2c2.1-0.7,4.2-1.9,6.3-2.8c1.9-0.8,3.7-1.7,5.6-2.5c0.4-0.2,0.8-0.4,1.2-0.5l16,6.3c1.3,0.5,3.1,0.5,4.1-0.6
			c0.5-0.5,1-1.3,1-2.1c0-0.7-0.6-1.2-1.2-1.6c-1.3-0.8-2.7-1.6-4.1-2.4c-1.6-0.9-3.2-1.9-4.8-2.8c-1.7-1-3.3-1.9-5-2.9
			c-1.3-0.8-2.7-1.6-4-2.4C165.3,328.8,164.7,328.5,164,328.1C164.1,328.1,164.1,328.1,164,328.1z"/>
	</g>
</g>
</svg>
