<?xml version="1.0" encoding="utf-8"?>
<!-- Generator: Adobe Illustrator 19.0.0, SVG Export Plug-In . SVG Version: 6.00 Build 0)  -->
<svg version="1.1" id="Layer_1" xmlns="http://www.w3.org/2000/svg" xmlns:xlink="http://www.w3.org/1999/xlink" x="0px" y="0px"
	 viewBox="0 0 300 300" style="enable-background:new 0 0 300 300;" xml:space="preserve">
<style type="text/css">
	.st0{fill:none;stroke:#000000;stroke-width:2;stroke-miterlimit:10;}
	.st1{fill:none;stroke:#FCBF00;stroke-width:2;stroke-miterlimit:10;}
</style>
<path id="XMLID_17_" class="st0" d="M-179.6-42.2"/>
<path id="XMLID_16_" class="st0" d="M-179.6-42.2c-8.1-7.2-13.1-17.7-13.1-29.3c0-21.7,17.6-39.2,39.2-39.2s39.3,17.6,39.3,39.2
	c0,2.5-0.2,4.9-0.7,7.3c-1.3,7-4.5,13.4-9,18.5"/>
<path id="XMLID_3_" class="st0" d="M-107.4-68.3c0.3-5,63.9-37.9,71-38.2c7.2-0.3,64.5,31.8,69.7,35.5c9.5,8.7-0.1,17-5.2,17.2
	s-56.4-21.6-61.7-21.6s-43.2,26.3-52.9,26.8S-107.6-63.3-107.4-68.3z"/>
<ellipse id="XMLID_7_" transform="matrix(0.87 0.493 -0.493 0.87 -64.5679 65.5503)" class="st0" cx="-156.6" cy="-89.7" rx="6.8" ry="11.5"/>
<ellipse id="XMLID_12_" transform="matrix(0.87 0.493 -0.493 0.87 -52.6492 77.8291)" class="st0" cx="-173.9" cy="-60.9" rx="6.8" ry="11.5"/>
<line id="XMLID_13_" class="st0" x1="-150.9" y1="-99.7" x2="-135.7" y2="-106.5"/>
<path id="XMLID_14_" class="st0" d="M-168.3-70.9c0,0-0.8-5.7,6-8.7"/>
<line id="XMLID_15_" class="st0" x1="-179.6" y1="-50.9" x2="-180.7" y2="-43.3"/>
<image style="display:none;overflow:visible;" width="200" height="200" id="XMLID_4_" xlink:href="../../../../design/icon references/75699-200.png"  transform="matrix(1.5 0 0 1.5 -0.1742 0)">
</image>
<path id="XMLID_2_" class="st1" d="M215.8,245.3L41.2,259.7c-6.4,0.5-12-4.3-12.6-10.6l0,0c-0.5-6.4,4.3-12,10.6-12.6l174.5-14.5
	c6.4-0.5,12,4.3,12.6,10.6v0C226.9,239.1,222.1,244.7,215.8,245.3z"/>
<rect id="XMLID_8_" x="154.5" y="252.5" class="st1" width="71.9" height="11.1"/>
<path id="XMLID_18_" class="st1" d="M242.3,94.7l1.7-4.1c1.1-2.7,4.2-3.9,6.9-2.8l0,0c1.7,0.7,2.8,2.2,3.1,3.8"/>
<path id="XMLID_19_" class="st1" d="M242.3,94.7"/>
<path id="XMLID_20_" class="st1" d="M188.2,224.2L237,107.6"/>
<line id="XMLID_11_" class="st1" x1="249.8" y1="104.2" x2="200.2" y2="223.2"/>
<path id="XMLID_1_" class="st1" d="M263.7,101.6l-63.4,13.7c-3,0.6-5.9-1.3-6.5-4.2v0c-0.6-3,1.3-5.9,4.2-6.5l63.4-13.7
	c3-0.6,5.9,1.3,6.5,4.2v0C268.6,98,266.7,100.9,263.7,101.6z"/>
<image style="display:none;overflow:visible;" width="200" height="200" id="XMLID_10_" xlink:href="../../../../design/icon references/75699-200.png"  transform="matrix(1.5 0 0 1.5 0 -0.7717)">
</image>
<circle id="XMLID_9_" class="st1" cx="138.7" cy="52.3" r="18.4"/>
<path id="XMLID_24_" class="st1" d="M159.9,215.4c2.2-2.2-7.8-54-10.2-58.7c-2.5-4.7-39.1-17.7-39.1-17.7l9.7-28.3
	c0,0,12.6,18.6,16.1,19.7s42.9-18.2,44.3-22.8c1.4-4.6-2.5-12.9-5.8-12.9c-3.3,0-28.7,14.2-32.4,12.9c-3.7-1.3-2.8-12.4-6.9-20.3
	s-8.9-9.8-15.2-12.1c-6.4-2.2-38.2-0.8-42.7,1.4c-4.4,2.2-15.2,22.5-23.5,38.7c0,4.8,9.1,10.3,12.7,8.6c3.6-1.7,17.7-29.3,17.7-29.3
	h16.6c0,0-21.3,45.4-22.2,50.7c-0.8,5.3,1.9,14.1,9.7,16.3s37.1,6.9,41.8,11.6s8,42.3,11.6,45.4
	C145.8,221.9,157.7,217.6,159.9,215.4z"/>
<path id="XMLID_23_" class="st1" d="M73,155.6c2.5,13.6,18.8,16.3,18.8,16.3S79.3,204.9,73,206c-6.4,1.1-42.6-20.5-44.4-25.2
	c-1.8-4.7,2.3-14.9,7.3-14.9s31,14.9,31,14.9L73,155.6z"/>
</svg>
