<?xml version="1.0" encoding="utf-8"?>
<!-- Generator: Adobe Illustrator 19.0.0, SVG Export Plug-In . SVG Version: 6.00 Build 0)  -->
<svg version="1.1" id="Layer_1" xmlns="http://www.w3.org/2000/svg" xmlns:xlink="http://www.w3.org/1999/xlink" x="0px" y="0px"
	 viewBox="100 -100 300 300" style="enable-background:new 100 -100 300 300;" xml:space="preserve">
<style type="text/css">
	.st0{fill:none;stroke:#000000;stroke-width:2;stroke-miterlimit:10;}
</style>
<path id="XMLID_17_" class="st0" d="M-79.6-142.2"/>
<line id="XMLID_15_" class="st0" x1="-79.6" y1="-150.9" x2="-80.7" y2="-143.3"/>
<image style="display:none;overflow:visible;enable-background:new    ;" width="200" height="200" id="XMLID_4_" xlink:href="../../../../design/icon references/75699-200.png"  transform="matrix(1.5 0 0 1.5 99.8258 -100)">
</image>
<path id="XMLID_2_" class="st0" d="M315.8,145.3l-174.6,14.4c-6.4,0.5-12-4.3-12.6-10.6l0,0c-0.5-6.4,4.3-12,10.6-12.6L313.7,122
	c6.4-0.5,12,4.3,12.6,10.6l0,0C326.9,139.1,322.1,144.7,315.8,145.3z"/>
<rect id="XMLID_8_" x="254.5" y="152.5" class="st0" width="71.9" height="11.1"/>
<path id="XMLID_18_" class="st0" d="M342.3-5.3l1.7-4.1c1.1-2.7,4.2-3.9,6.9-2.8l0,0c1.7,0.7,2.8,2.2,3.1,3.8"/>
<path id="XMLID_19_" class="st0" d="M342.3-5.3"/>
<path id="XMLID_20_" class="st0" d="M288.2,124.2L337,7.6"/>
<line id="XMLID_11_" class="st0" x1="349.8" y1="4.2" x2="300.2" y2="123.2"/>
<path id="XMLID_1_" class="st0" d="M363.7,1.6l-63.4,13.7c-3,0.6-5.9-1.3-6.5-4.2l0,0c-0.6-3,1.3-5.9,4.2-6.5l63.4-13.7
	c3-0.6,5.9,1.3,6.5,4.2l0,0C368.6-2,366.7,0.9,363.7,1.6z"/>
<circle id="XMLID_9_" class="st0" cx="238.7" cy="-47.7" r="18.4"/>
<path id="XMLID_24_" class="st0" d="M259.9,115.4c2.2-2.2-7.8-54-10.2-58.7C247.2,52,210.6,39,210.6,39l9.7-28.3
	c0,0,12.6,18.6,16.1,19.7s42.9-18.2,44.3-22.8c1.4-4.6-2.5-12.9-5.8-12.9S246.2,8.9,242.5,7.6c-3.7-1.3-2.8-12.4-6.9-20.3
	s-8.9-9.8-15.2-12.1c-6.4-2.2-38.2-0.8-42.7,1.4c-4.4,2.2-15.2,22.5-23.5,38.7c0,4.8,9.1,10.3,12.7,8.6c3.6-1.7,17.7-29.3,17.7-29.3
	h16.6c0,0-21.3,45.4-22.2,50.7c-0.8,5.3,1.9,14.1,9.7,16.3s37.1,6.9,41.8,11.6s8,42.3,11.6,45.4
	C245.8,121.9,257.7,117.6,259.9,115.4z"/>
<path id="XMLID_23_" class="st0" d="M173,55.6c2.5,13.6,18.8,16.3,18.8,16.3s-12.5,33-18.8,34.1c-6.4,1.1-42.6-20.5-44.4-25.2
	c-1.8-4.7,2.3-14.9,7.3-14.9s31,14.9,31,14.9L173,55.6z"/>
</svg>
