<?xml version="1.0" encoding="utf-8"?>
<!-- Generator: Adobe Illustrator 19.0.0, SVG Export Plug-In . SVG Version: 6.00 Build 0)  -->
<svg version="1.1" id="Layer_1" xmlns="http://www.w3.org/2000/svg" xmlns:xlink="http://www.w3.org/1999/xlink" x="0px" y="0px"
	 viewBox="100 -100 300 300" style="enable-background:new 100 -100 300 300;" xml:space="preserve">
<style type="text/css">
	.st0{fill:none;stroke:#FFFFFF;stroke-width:3;stroke-miterlimit:10;}
</style>
<image style="display:none;overflow:visible;enable-background:new    ;" width="200" height="200" id="XMLID_4_" xlink:href="../../../../design/icon references/75699-200.png"  transform="matrix(1.5 0 0 1.5 199.8258 -200)">
</image>
<path id="XMLID_2_" class="st0" d="M327.8,140.3l-174.6,14.4c-6.4,0.5-12-4.3-12.6-10.6l0,0c-0.5-6.4,4.3-12,10.6-12.6L325.7,117
	c6.4-0.5,12,4.3,12.6,10.6l0,0C338.9,134.1,334.1,139.7,327.8,140.3z"/>
<rect id="XMLID_8_" x="266.5" y="147.5" class="st0" width="71.9" height="11.1"/>
<path id="XMLID_18_" class="st0" d="M354.3-10.3l1.7-4.1c1.1-2.7,4.2-3.9,6.9-2.8l0,0c1.7,0.7,2.8,2.2,3.1,3.8"/>
<path id="XMLID_19_" class="st0" d="M354.3-10.3"/>
<path id="XMLID_20_" class="st0" d="M300.2,119.2L349,2.6"/>
<line id="XMLID_11_" class="st0" x1="361.8" y1="-0.8" x2="312.2" y2="118.2"/>
<path id="XMLID_1_" class="st0" d="M375.7-3.4l-63.4,13.7c-3,0.6-5.9-1.3-6.5-4.2l0,0c-0.6-3,1.3-5.9,4.2-6.5l63.4-13.7
	c3-0.6,5.9,1.3,6.5,4.2l0,0C380.6-7,378.7-4.1,375.7-3.4z"/>
<image style="display:none;overflow:visible;enable-background:new    ;" width="200" height="200" id="XMLID_10_" xlink:href="../../../../design/icon references/75699-200.png"  transform="matrix(1.5 0 0 1.5 200 -200.7717)">
</image>
<circle id="XMLID_9_" class="st0" cx="250.7" cy="-52.7" r="18.4"/>
<path id="XMLID_24_" class="st0" d="M271.9,110.4c2.2-2.2-7.8-54-10.2-58.7C259.2,47,222.6,34,222.6,34l9.7-28.3
	c0,0,12.6,18.6,16.1,19.7s42.9-18.2,44.3-22.8s-2.5-12.9-5.8-12.9S258.2,3.9,254.5,2.6c-3.7-1.3-2.8-12.4-6.9-20.3
	s-8.9-9.8-15.2-12.1c-6.4-2.2-38.2-0.8-42.7,1.4c-4.4,2.2-15.2,22.5-23.5,38.7c0,4.8,9.1,10.3,12.7,8.6c3.6-1.7,17.7-29.3,17.7-29.3
	h16.6c0,0-21.3,45.4-22.2,50.7c-0.8,5.3,1.9,14.1,9.7,16.3s37.1,6.9,41.8,11.6s8,42.3,11.6,45.4
	C257.8,116.9,269.7,112.6,271.9,110.4z"/>
<path id="XMLID_23_" class="st0" d="M185,50.6c2.5,13.6,18.8,16.3,18.8,16.3s-12.5,33-18.8,34.1c-6.4,1.1-42.6-20.5-44.4-25.2
	c-1.8-4.7,2.3-14.9,7.3-14.9s31,14.9,31,14.9L185,50.6z"/>
</svg>
