<?xml version="1.0" encoding="utf-8"?>
<!-- Generator: Adobe Illustrator 19.0.0, SVG Export Plug-In . SVG Version: 6.00 Build 0)  -->
<svg version="1.1" id="Layer_1" xmlns="http://www.w3.org/2000/svg" xmlns:xlink="http://www.w3.org/1999/xlink" x="0px" y="0px"
	 viewBox="-147 246.7 300 300" style="enable-background:new -147 246.7 300 300;" xml:space="preserve">
<style type="text/css">
	.st0{fill:none;stroke:#FCBF00;stroke-width:3;stroke-miterlimit:10;}
</style>
<image style="display:none;overflow:visible;enable-background:new    ;" width="200" height="200" id="XMLID_4_" xlink:href="../../../../design/icon references/75699-200.png"  transform="matrix(1.5 0 0 1.5 52.8258 46.7)">
</image>
<image style="display:none;overflow:visible;enable-background:new    ;" width="200" height="200" id="XMLID_10_" xlink:href="../../../../design/icon references/75699-200.png"  transform="matrix(1.5 0 0 1.5 53 45.9283)">
</image>
<g>
	<path id="XMLID_2_" class="st0" d="M70.7,493.2l-174.6,14.4c-6.4,0.5-12-4.3-12.6-10.6l0,0c-0.5-6.4,4.3-12,10.6-12.6L68.6,470
		c6.4-0.5,12,4.3,12.6,10.6l0,0C81.8,487.1,77,492.6,70.7,493.2z"/>
	<rect id="XMLID_8_" x="9.4" y="500.5" class="st0" width="71.9" height="11.1"/>
	<path id="XMLID_18_" class="st0" d="M97.2,342.6l1.7-4.1c1.1-2.7,4.2-3.9,6.9-2.8l0,0c1.7,0.7,2.8,2.2,3.1,3.8"/>
	<path id="XMLID_19_" class="st0" d="M97.2,342.6"/>
	<path id="XMLID_20_" class="st0" d="M43.1,472.1l48.8-116.6"/>
	<line id="XMLID_11_" class="st0" x1="104.7" y1="352.1" x2="55.1" y2="471.1"/>
	<path id="XMLID_1_" class="st0" d="M118.6,349.6l-63.4,13.7c-3,0.6-5.9-1.3-6.5-4.2l0,0c-0.6-3,1.3-5.9,4.2-6.5l63.4-13.7
		c3-0.6,5.9,1.3,6.5,4.2l0,0C123.5,346,121.6,348.9,118.6,349.6z"/>
	<circle id="XMLID_9_" class="st0" cx="-6.4" cy="300.2" r="18.4"/>
	<path id="XMLID_24_" class="st0" d="M14.8,463.4c2.2-2.2-7.8-54-10.2-58.7C2.1,400-34.5,387-34.5,387l9.7-28.3
		c0,0,12.6,18.6,16.1,19.7s42.9-18.2,44.3-22.8c1.4-4.6-2.5-12.9-5.8-12.9S1.1,356.9-2.6,355.6c-3.7-1.3-2.8-12.4-6.9-20.3
		s-8.9-9.8-15.2-12.1c-6.4-2.2-38.2-0.8-42.7,1.4c-4.4,2.2-15.2,22.5-23.5,38.7c0,4.8,9.1,10.3,12.7,8.6
		c3.6-1.7,17.7-29.3,17.7-29.3h16.6c0,0-21.3,45.4-22.2,50.7c-0.8,5.3,1.9,14.1,9.7,16.3c7.8,2.2,37.1,6.9,41.8,11.6
		c4.7,4.7,8,42.3,11.6,45.4C0.7,469.9,12.6,465.6,14.8,463.4z"/>
	<path id="XMLID_23_" class="st0" d="M-72.1,403.6c2.5,13.6,18.8,16.3,18.8,16.3s-12.5,33-18.8,34.1c-6.4,1.1-42.6-20.5-44.4-25.2
		c-1.8-4.7,2.3-14.9,7.3-14.9s31,14.9,31,14.9L-72.1,403.6z"/>
</g>
</svg>
