<?xml version="1.0" encoding="utf-8"?>
<!-- Generator: Adobe Illustrator 19.0.0, SVG Export Plug-In . SVG Version: 6.00 Build 0)  -->
<svg version="1.1" id="Layer_1" xmlns="http://www.w3.org/2000/svg" xmlns:xlink="http://www.w3.org/1999/xlink" x="0px" y="0px"
	 viewBox="-147 246.7 300 300" style="enable-background:new -147 246.7 300 300;" xml:space="preserve">
<style type="text/css">
	.st0{fill:#18214C;}
</style>
<path id="XMLID_741_" class="st0" d="M122.1,307.5c2.4,22.9-8.7,36.5-32,39.3c-19.2,2.3-33.6-3.7-47.7-20
	c-27.1,27.5-57.9,27.4-79.3-1.1c-9.6,14.6-23.1,22.4-40.3,22.4c-17.5,0-33.2-9.8-38.1-25.6c-2.6-8.7-2.5-10.1-2.2-19.7
	c19.7,39.5,63.6,34.7,80.5,1.5c8.9,16.4,22.1,26.3,40.2,25.7c17.4-0.6,31.8-8.1,38.3-26.1c3.6,1.4,3.9,4.8,5.5,7.1
	C65.3,337.8,104,338.4,122.1,307.5z"/>
<path id="XMLID_12_" class="st0" d="M122.1,376.6c2.4,22.9-8.7,36.5-32,39.3c-19.2,2.3-33.6-3.7-47.7-20
	c-27.1,27.5-57.9,27.4-79.3-1.1c-9.6,14.6-23.1,22.4-40.3,22.4c-17.5,0-33.2-9.8-38.1-25.6c-2.6-8.7-2.5-10.1-2.2-19.7
	c19.7,39.5,63.6,34.7,80.5,1.5c8.9,16.4,22.1,26.3,40.2,25.7C20.6,398.5,35,391,41.5,373c3.6,1.4,3.9,4.8,5.5,7.1
	C65.3,406.9,104,407.6,122.1,376.6z"/>
<path id="XMLID_13_" class="st0" d="M122.1,446.2c2.4,22.9-8.7,36.5-32,39.3c-19.2,2.3-33.6-3.7-47.7-20
	c-27.1,27.5-57.9,27.4-79.3-1.1c-9.6,14.6-23.1,22.4-40.3,22.4c-17.5,0-33.2-9.8-38.1-25.6c-2.6-8.7-2.5-10.1-2.2-19.7
	C-97.8,481-53.9,476.2-37,443c8.9,16.4,22.1,26.3,40.2,25.7c17.4-0.6,31.8-8.1,38.3-26.1c3.6,1.4,3.9,4.8,5.5,7.1
	C65.3,476.4,104,477.1,122.1,446.2z"/>
</svg>
