<?xml version="1.0" encoding="utf-8"?>
<!-- Generator: Adobe Illustrator 19.0.0, SVG Export Plug-In . SVG Version: 6.00 Build 0)  -->
<svg version="1.1" id="Layer_1" xmlns="http://www.w3.org/2000/svg" xmlns:xlink="http://www.w3.org/1999/xlink" x="0px" y="0px"
	 viewBox="0 0 300 300" style="enable-background:new 0 0 300 300;" xml:space="preserve">
<style type="text/css">
	.st0{fill:#18214C;}
</style>
<path id="XMLID_741_" class="st0" d="M269.1,60.8c2.4,22.9-8.7,36.5-32,39.3c-19.2,2.3-33.6-3.7-47.7-20
	c-27.1,27.5-57.9,27.4-79.3-1.1c-9.6,14.6-23.1,22.4-40.3,22.4c-17.5,0-33.2-9.8-38.1-25.6c-2.6-8.7-2.5-10.1-2.2-19.7
	c19.7,39.5,63.6,34.7,80.5,1.5c8.9,16.4,22.1,26.3,40.2,25.7c17.4-0.6,31.8-8.1,38.3-26.1c3.6,1.4,3.9,4.8,5.5,7.1
	C212.3,91.1,251,91.7,269.1,60.8z"/>
<path id="XMLID_12_" class="st0" d="M269.1,129.9c2.4,22.9-8.7,36.5-32,39.3c-19.2,2.3-33.6-3.7-47.7-20
	c-27.1,27.5-57.9,27.4-79.3-1.1c-9.6,14.6-23.1,22.4-40.3,22.4c-17.5,0-33.2-9.8-38.1-25.6c-2.6-8.7-2.5-10.1-2.2-19.7
	c19.7,39.5,63.6,34.7,80.5,1.5c8.9,16.4,22.1,26.3,40.2,25.7c17.4-0.6,31.8-8.1,38.3-26.1c3.6,1.4,3.9,4.8,5.5,7.1
	C212.3,160.2,251,160.9,269.1,129.9z"/>
<path id="XMLID_13_" class="st0" d="M269.1,199.5c2.4,22.9-8.7,36.5-32,39.3c-19.2,2.3-33.6-3.7-47.7-20
	c-27.1,27.5-57.9,27.4-79.3-1.1c-9.6,14.6-23.1,22.4-40.3,22.4c-17.5,0-33.2-9.8-38.1-25.6c-2.6-8.7-2.5-10.1-2.2-19.7
	c19.7,39.5,63.6,34.7,80.5,1.5c8.9,16.4,22.1,26.3,40.2,25.7c17.4-0.6,31.8-8.1,38.3-26.1c3.6,1.4,3.9,4.8,5.5,7.1
	C212.3,229.7,251,230.4,269.1,199.5z"/>
</svg>
