<?xml version="1.0" encoding="utf-8"?>
<!-- Generator: Adobe Illustrator 19.0.0, SVG Export Plug-In . SVG Version: 6.00 Build 0)  -->
<svg version="1.1" id="Layer_1" xmlns="http://www.w3.org/2000/svg" xmlns:xlink="http://www.w3.org/1999/xlink" x="0px" y="0px"
	 viewBox="100 -100 300 300" style="enable-background:new 100 -100 300 300;" xml:space="preserve">
<style type="text/css">
	.st0{fill:none;stroke:#FFFFFF;stroke-width:3;stroke-miterlimit:10;}
</style>
<g id="XMLID_1_">
	<path id="XMLID_16_" class="st0" d="M110.9,51.9c23.2,0,23.2,12,46.4,12s23.2-12,46.4-12s23.2,12,46.4,12s23.2-12,46.4-12
		s23.2,12,46.4,12s23.2-12,46.4-12"/>
</g>
<path id="XMLID_17_" class="st0" d="M171.2,108.1"/>
<image style="display:none;overflow:visible;enable-background:new    ;" width="186" height="186" id="XMLID_3_" xlink:href="../../../../design/icon references/hi-lo-aerobics-icon_2.png"  transform="matrix(1.4964 0 0 1.4964 103.3333 -71)">
</image>
<circle id="XMLID_2_" class="st0" cx="216.3" cy="8.1" r="19.4"/>
<path id="XMLID_6_" class="st0" d="M256,31c9,9,23,42,23.7,59.3c0.7,17.3,3,75.7,3,84s-10,7.7-10,7.7s-10.5,1.4-10.7-7
	s2.3-63.7-1.7-70.3c-3.7,1.7-8.7,0.3-8.7,0.3c-5.7,39.3-28.3,73.7-28.3,73.7s-6,5.7-14.3,3.3c-7.7-2.3-2.3-15.3-2.3-15.3
	s23.3-53.3,23.7-63.3c4.7-30.1-14-50-14-50s-24.8-10.8-35-25.9c-7.3-17.1-1.3-42.1,0-48.8c1.3-6.7,9.6-3.7,13.3,1.6
	c-5,19.3-5,29.7-1.3,37.3c6.7,12.7,23,19.7,23,19.7l26.2-18c0,0,2.8-18.7-6.8-29C226-20,202.2-22.3,197-24.3s-8-8.7,0-11.7
	c9,0,35.7,3.7,49.7,16.3C261-2.7,254.7,28.5,256,31z"/>
</svg>
