<?xml version="1.0" encoding="utf-8"?>
<!-- Generator: Adobe Illustrator 19.0.0, SVG Export Plug-In . SVG Version: 6.00 Build 0)  -->
<svg version="1.1" id="Layer_1" xmlns="http://www.w3.org/2000/svg" xmlns:xlink="http://www.w3.org/1999/xlink" x="0px" y="0px"
	 viewBox="0 0 300 300" style="enable-background:new 0 0 300 300;" xml:space="preserve">
<style type="text/css">
	.st0{fill:none;stroke:#FFFFFF;stroke-width:2;stroke-linejoin:round;stroke-miterlimit:10;}
</style>
<image style="display:none;overflow:visible;" width="512" height="512" id="XMLID_2_" xlink:href="../../../../design/icon references/home.png"  transform="matrix(0.8477 0 0 0.8477 -66.4944 -65.9916)">
</image>
<path id="XMLID_5_" class="st0" d="M75.5,244.7v-77.5c0-1.5-1.2-2.8-2.8-2.8H46.2c-2.5,0-3.7-3-2-4.7l104-104c1.1-1.1,2.8-1.1,3.9,0
	L178,81.5c1.8,1.8,4.7,0.5,4.7-2V69.3c0-1.5,1.2-2.8,2.8-2.8h22.2c1.5,0,2.8,1.2,2.8,2.8v42.6c0,0.7,0.3,1.4,0.8,2l42.4,42.4
	c1.8,1.8,0.5,4.7-2,4.7h-25c-1.5,0-2.8,1.2-2.8,2.8v81.4c0,1.5-1.2,2.8-2.8,2.8l-142.9-0.5C76.7,247.5,75.5,246.3,75.5,244.7z"/>
</svg>
