<?xml version="1.0" encoding="utf-8"?>
<!-- Generator: Adobe Illustrator 19.0.0, SVG Export Plug-In . SVG Version: 6.00 Build 0)  -->
<svg version="1.1" id="Layer_1" xmlns="http://www.w3.org/2000/svg" xmlns:xlink="http://www.w3.org/1999/xlink" x="0px" y="0px"
	 viewBox="100 -100 300 300" style="enable-background:new 100 -100 300 300;" xml:space="preserve">
<style type="text/css">
	.st0{fill:none;stroke:#FCBF00;stroke-width:3;stroke-linejoin:round;stroke-miterlimit:10;}
</style>
<image style="display:none;overflow:visible;enable-background:new    ;" width="512" height="512" id="XMLID_2_" xlink:href="../../../../design/icon references/home.png"  transform="matrix(0.8477 0 0 0.8477 33.5056 -165.9916)">
</image>
<path id="XMLID_5_" class="st0" d="M175.5,144.7V67.2c0-1.5-1.2-2.8-2.8-2.8h-26.5c-2.5,0-3.7-3-2-4.7l104-104
	c1.1-1.1,2.8-1.1,3.9,0L278-18.5c1.8,1.8,4.7,0.5,4.7-2v-10.2c0-1.5,1.2-2.8,2.8-2.8h22.2c1.5,0,2.8,1.2,2.8,2.8v42.6
	c0,0.7,0.3,1.4,0.8,2l42.4,42.4c1.8,1.8,0.5,4.7-2,4.7h-25c-1.5,0-2.8,1.2-2.8,2.8v81.4c0,1.5-1.2,2.8-2.8,2.8l-142.9-0.5
	C176.7,147.5,175.5,146.3,175.5,144.7z"/>
</svg>
