<?xml version="1.0" encoding="utf-8"?>
<!-- Generator: Adobe Illustrator 19.0.0, SVG Export Plug-In . SVG Version: 6.00 Build 0)  -->
<svg version="1.1" id="Layer_1" xmlns="http://www.w3.org/2000/svg" xmlns:xlink="http://www.w3.org/1999/xlink" x="0px" y="0px"
	 viewBox="-147 246.7 300 300" style="enable-background:new -147 246.7 300 300;" xml:space="preserve">
<style type="text/css">
	.st0{fill:none;stroke:#FCBF00;stroke-width:3;stroke-miterlimit:10;}
	.st1{fill:#FCBF00;}
	.st2{fill:none;stroke:#FCBF00;stroke-width:5;stroke-miterlimit:10;}
</style>
<image style="display:none;overflow:visible;enable-background:new    ;" width="512" height="512" id="XMLID_3_" xlink:href="../../../../design/icon references/horarios.png"  transform="matrix(0.4219 0 0 0.3936 -104 296.2)">
</image>
<g>
	<path id="XMLID_1_" class="st0" d="M9.5,462.4h-96.3c-6.6,0-12-5.4-12-12V330.8c0-6.6,5.4-12,12-12h176c6.6,0,12,5.4,12,12v60.5"/>
	<circle id="XMLID_2_" class="st0" cx="53" cy="422.8" r="51.8"/>
	<path id="XMLID_5_" class="st1" d="M-98.8,353.3v-22.5c0-6.6,5.4-12,12-12h176c6.6,0,12,5.4,12,12v22L-98.8,353.3z"/>
	<line id="XMLID_6_" class="st2" x1="-86.8" y1="377.9" x2="16.2" y2="377.9"/>
	<line id="XMLID_8_" class="st0" x1="-86.8" y1="405.3" x2="-4.5" y2="405.3"/>
	<line id="XMLID_10_" class="st0" x1="-86.8" y1="430.9" x2="-6.5" y2="430.9"/>
	<line id="XMLID_11_" class="st0" x1="-63.8" y1="377.9" x2="-63.8" y2="451.9"/>
	<line id="XMLID_12_" class="st0" x1="-31.5" y1="377.9" x2="-31.5" y2="451.9"/>
	<line id="XMLID_13_" class="st0" x1="1.2" y1="377.9" x2="1.2" y2="393.9"/>
	<circle id="XMLID_19_" class="st1" cx="53" cy="422.8" r="4"/>
	<line id="XMLID_15_" class="st0" x1="53.7" y1="422.5" x2="77.8" y2="398.5"/>
	<line id="XMLID_20_" class="st0" x1="29.5" y1="422.8" x2="53" y2="422.8"/>
	<line id="XMLID_4_" class="st0" x1="99.9" y1="422.7" x2="84.9" y2="422.8"/>
	<line id="XMLID_22_" class="st0" x1="21" y1="422.9" x2="6" y2="423"/>
	<line id="XMLID_21_" class="st0" x1="52.4" y1="376.6" x2="52.6" y2="391.6"/>
	<line id="XMLID_16_" class="st0" x1="53.3" y1="455.4" x2="53.5" y2="470.4"/>
	<line id="XMLID_27_" class="st0" x1="86.4" y1="456.4" x2="75.8" y2="445.8"/>
	<line id="XMLID_26_" class="st0" x1="31.1" y1="400.1" x2="20.5" y2="389.5"/>
	<line id="XMLID_25_" class="st0" x1="86.2" y1="390.3" x2="75.5" y2="400.9"/>
	<line id="XMLID_24_" class="st0" x1="30.4" y1="446" x2="19.8" y2="456.6"/>
</g>
</svg>
