<?xml version="1.0" encoding="utf-8"?>
<!-- Generator: Adobe Illustrator 19.0.0, SVG Export Plug-In . SVG Version: 6.00 Build 0)  -->
<svg version="1.1" id="Layer_1" xmlns="http://www.w3.org/2000/svg" xmlns:xlink="http://www.w3.org/1999/xlink" x="0px" y="0px"
	 viewBox="0 0 300 300" style="enable-background:new 0 0 300 300;" xml:space="preserve">
<style type="text/css">
	.st0{fill:none;stroke:#FCFCFC;stroke-width:2;stroke-miterlimit:10;}
	.st1{fill:none;stroke:#FCFCFC;stroke-width:3;stroke-miterlimit:10;}
</style>
<image style="display:none;overflow:visible;" width="626" height="626" id="XMLID_2_" xlink:href="../../../../design/icon references/login.jpg"  transform="matrix(0.3834 0 0 0.3834 25.5 30.5)">
</image>
<path id="XMLID_2389_" class="st0" d="M130.7,110.5c-4.6,1.8-8.4,4.4-12.2,7.3c-6.3,5-10.9,12.6-13,20.1
	c-4.6,16.9,2.7,36.1,18.4,45.4c15.8,9.4,36.5,7.8,50.6-3.9c3.2-2.7,5.2-6.4,8.2-9.1c1.5-1.4,2.7-1.2,4.8-1.2c1.8,0,7.6,0,7.6,0
	l0.1-16.8h5.7l-0.2,16.8l12.2,0.2l0-17h5.8l-0.1,16.9h11.9l-0.1-16.9h4.5l0.2,16.9c0,0,6.4,0,8.4,0c4.7,0,8.8-0.5,12.9-2.9
	c13.5-8.1,13.2-27.7-0.9-35.2c-4.3-2.3-8.7-2.3-13.4-2.3c-5.7,0-11.5-0.1-17.2-0.1c-11.5,0-22.9,0-34.4,0c-2.1,0-5.1,0.7-6.7-0.7
	c-1.6-1.3-2.5-3.8-3.9-5.4c-2.9-3.4-6.4-6.2-10.1-8.7c-8.5-5.9-19.6-7-29.7-6C135.1,108.4,132.6,109.7,130.7,110.5z"/>
<path id="XMLID_7_" class="st0" d="M237.5,207.7"/>
<path id="XMLID_6_" class="st1" d="M237.5,207.7v36.5c0,14.7-12.1,26.8-26.8,26.8H80.8C66.1,271,54,258.9,54,244.2V57.3
	c0-14.7,12.1-26.8,26.8-26.8h129.9c14.7,0,26.8,12.1,26.8,26.8v42.4"/>
<circle id="XMLID_1_" class="st0" cx="128" cy="146.7" r="14.3"/>
</svg>
