<?xml version="1.0" encoding="utf-8"?>
<!-- Generator: Adobe Illustrator 19.0.0, SVG Export Plug-In . SVG Version: 6.00 Build 0)  -->
<svg version="1.1" id="Layer_1" xmlns="http://www.w3.org/2000/svg" xmlns:xlink="http://www.w3.org/1999/xlink" x="0px" y="0px"
	 viewBox="100 -100 300 300" style="enable-background:new 100 -100 300 300;" xml:space="preserve">
<style type="text/css">
	.st0{fill:none;stroke:#000000;stroke-width:3;stroke-miterlimit:10;}
	.st1{fill:none;stroke:#000000;stroke-width:3;stroke-linejoin:round;stroke-miterlimit:10;}
</style>
<image style="display:none;overflow:visible;enable-background:new    ;" width="186" height="186" id="XMLID_3_" xlink:href="../../../../design/icon references/hi-lo-aerobics-icon_2.png"  transform="matrix(1.4964 0 0 1.4964 203.3333 -171)">
</image>
<circle id="XMLID_2_" class="st0" cx="350" cy="-80.4" r="19.4"/>
<image style="display:none;overflow:visible;enable-background:new    ;" width="512" height="512" id="XMLID_8_" xlink:href="../../../../design/icon references/yoga-512.png"  transform="matrix(0.6216 0 0 0.6216 188.8733 -239.2535)">
</image>
<path id="XMLID_14_" class="st1" d="M342-55h13.5c0,0,13.4,0.9,20,11s14.5,29,24,37s15,9.5,15,9.5s7.7,1.8,6,10.5S408,20.5,408,20.5
	s-14.3-7.3-21-14.3s-16.7-22-16.7-22l0.8,32.2c0,0,19.5-0.2,26,2.2s9.2,4.8,8.8,11.7c-0.5,9.3-11.5,13.3-11.5,13.3s-21,5-47.5,5
	s-46.5-7-46.5-7S292.5,36,293,28c0.4-6.6,6.9-9,13.1-11c5.6-1.9,22.3-0.8,22.3-0.8v-33c0,0-10.3,17.2-17.5,25
	c-7.2,7.8-20.7,12.2-20.7,12.2s-6.5,1.2-9.8-5.5c-3.3-6.7,2.2-11.6,5.3-12.9s8.2-2.8,14.2-8.3s17.2-26.5,23.5-37.5
	C331.2-55,342-55,342-55z"/>
<path id="XMLID_7_" class="st1" d="M302-31c-22.5-53,46-128,46-128s73,85,45,133"/>
<path id="XMLID_23_" class="st1" d="M381.2-110.1c22.2-10.4,41.2-15.4,41.2-15.4s9.6,71-11.9,112.3"/>
<path id="XMLID_11_" class="st1" d="M316.1-50.7"/>
<path id="XMLID_19_" class="st1" d="M285-13.2c-20.2-42.9-6.3-109.3-6.3-109.3s15.2,5.2,34.1,14.6"/>
<path id="XMLID_20_" class="st1" d="M270,1.3c-28.9-30.5-44.5-77.6-44.5-77.6s21.9-4.4,48.6-5"/>
<path id="XMLID_21_" class="st1" d="M290.7,49.2c-44.4-8.7-88.4-48.9-88.4-48.9s19.1-16.4,44.3-30.7"/>
<path id="XMLID_13_" class="st1" d="M424.5-82.1c26.7,1.1,48.4,6.6,48.4,6.6s-16.9,44.2-44,74.6"/>
<path id="XMLID_18_" class="st1" d="M407.1,47.9c44.2-9.3,87.5-49.6,87.5-49.6s-18.8-15.9-43.7-29.8"/>
</svg>
