<?xml version="1.0" encoding="utf-8"?>
<!-- Generator: Adobe Illustrator 19.0.0, SVG Export Plug-In . SVG Version: 6.00 Build 0)  -->
<svg version="1.1" id="Layer_1" xmlns="http://www.w3.org/2000/svg" xmlns:xlink="http://www.w3.org/1999/xlink" x="0px" y="0px"
	 viewBox="-147 246.7 300 300" style="enable-background:new -147 246.7 300 300;" xml:space="preserve">
<style type="text/css">
	.st0{fill:#FFFFFF;}
</style>
<g id="XMLID_1_">
	<path id="XMLID_127_" class="st0" d="M-117,329.6c1.9-0.6,2.3,0.8,3.1,1.9c12.7,18.2,34.4,16.9,44.6-2.7c0.2-0.3,0.6-0.5,1.1-0.8
		c4.9,10.8,13.3,16.4,25.1,15.9c11.1-0.4,18.8-6.1,22.7-17.6c4.9,10.9,12,17.6,23.8,17.9c11.7,0.3,18.9-6.3,24.3-16.4
		c5.2,10.1,12.6,16,23.7,15.8c7.1-0.1,13.6-2.2,19-9c-14.6,1.3-25.4-6.8-37.4-10.8c-3.7-1.2-6.6-1.4-10.2,0.4
		c-6.4,3.3-13,6.2-19.7,8.9c-7.4,3-11.9,1.7-17.3-4.1c-4.5-4.8-4-8.3,2-11.2c11.2-5.4,22.6-10.2,33.7-15.8c3.6-1.8,8.2-2.1,11.9,0.1
		c11.2,6.6,22.4,13.1,33.6,19.6c3.5,2,6,4.4,3.9,8.9c3,0.5,2.5-2.3,3.8-3.3c14.3,21.4,33.5,22.9,47.9,2.5c0.2,4.8,0.5,8.5-0.3,12.4
		c-11.5,12.3-24.7,15.1-37.6,8.2c-4-2.1-6.7-5.6-10-9c-6.2,8.1-14.2,12.4-24.3,12.4c-8.4,0-15.2-3.1-20.4-9.6
		c-1.1-1.4-1.6-3.8-4.3-1c-16.1,16.5-32.6,15.2-46-3.3c-12.8,19-34.6,19.6-48.2,0.8c-3.8,5.5-8,10.3-14.7,12.2
		c-13.9,4.1-23.3,0.1-32.7-14.1c-0.4-0.3-0.8-0.6-1.1-0.9C-117,335.2-117,332.4-117,329.6z M61.9,331.8c3.1,0.4,5.4-0.6,6.3-3.1
		c0.9-2.6-1.6-3.3-3.2-4.2c-11.2-6.6-22.5-13-33.6-19.7c-2.6-1.5-4.6-1.4-7.2-0.2c-10.4,5-21,9.7-31.5,14.7c-2.3,1.1-6.8,1.7-6,4.7
		c0.9,3.8,4.4,6.6,8.8,7.1c3.1,0.4,5.9-0.7,8.7-1.9c6-2.7,12.2-5.1,17.9-8.3c4.1-2.2,7.6-2,11.8-0.2
		C43.2,324.7,52.8,328.2,61.9,331.8z"/>
	<path id="XMLID_126_" class="st0" d="M-117,468c1.6-0.3,2.5,0.6,3.4,1.9c13.9,18.2,34.3,16.5,45.2-4.3c5,11.1,13.5,16.9,25.4,16.4
		c11.1-0.5,18.8-6.2,22.6-17.7c4.7,10.9,11.8,17.6,23.4,18c11.9,0.5,19.2-6.5,24.8-16.4c5.3,10.5,13.1,16.2,24.6,15.7
		c10.9-0.5,18.4-5.9,22.4-17c4.8,10.1,11.7,16.9,22.7,17.5c10.9,0.6,19.4-3.9,24.6-14.1c2.4,10.6-0.5,16.9-9.9,21.5
		c-12.8,6.2-27.2,2.6-37.4-9.6c-5.8,7.8-13.8,11.8-23.4,12.2c-10.1,0.4-17.8-3.7-23.7-12.7c-5.8,8.7-13.8,13.4-24,13.4
		c-10.5,0-18.3-5.1-23.9-14.7c-5,10-13.2,14.3-23.7,14.4c-10.4,0.1-18.7-3.9-24.6-13.3c-5.2,8.8-12.8,13.1-22.7,13.4
		c-10.1,0.3-17.8-3.8-23-12.5c-0.8-1.3-0.9-3.2-2.8-3.7C-117,473.6-117,470.8-117,468z"/>
	<path id="XMLID_125_" class="st0" d="M122.6,433.7c1.4,13.7-5.2,21.8-19.1,23.5c-11.4,1.4-20.1-2.2-28.5-11.9
		c-16.2,16.4-34.6,16.4-47.3-0.7C22,453.3,13.9,458,3.6,458c-10.5,0-18.3-5.2-23.8-14.8c-5.1,10.1-13.3,14.4-23.8,14.5
		c-10.3,0-18.6-4-24.5-13.4c-4.9,8.9-12.5,13-22.1,13.5c-10,0.5-17.9-3.4-23.3-12c-0.9-1.4-1-3.6-3.1-4.1c0-2.8,0-5.6,0-8.4
		c1.8-0.3,2.4,1.1,3.1,2.2c10.4,16.6,36.1,16.9,45.3-3.4c5.5,9.8,13.3,15.7,24.4,15.5c11.3-0.2,19.3-5.6,23.6-16.5
		c11.7,23.6,38,20.7,48,0.9c5.3,9.8,13.2,15.7,24,15.3c10.4-0.4,19-4.8,22.9-15.6c2.1,0.8,2.3,2.8,3.3,4.2
		C88.6,451.7,111.8,452.1,122.6,433.7z"/>
	<path id="XMLID_120_" class="st0" d="M-78.8,409c-1.4,0-2.8,0-4.2,0c-8.2,0-8.6-0.2-5.9-7.6c2.8-7.6,3.7-15.5,5.5-23.3
		c0.8-3.6,2.2-5.2,6-4.9c4.6,0.3,9.3-0.2,13.8,0.4c7.5,1,9.8,6,6,12.5c-1.2,2-1.9,3.7-1.3,6.1c2.1,9.4-3.5,16.5-13.2,16.8
		C-74.4,409-76.6,409-78.8,409z M-74.3,393.3c-4.5-1.4-5.9,2.2-6.3,6.6s3.1,2.7,5,2.9c4.4,0.4,9.3,0,9.7-5.4
		C-65.5,392.7-70.1,393.7-74.3,393.3z M-69.5,380.1c-3.9-0.1-7.7-0.8-7.8,4.4c-0.1,4.2,3.1,2.6,5.1,2.8c3.6,0.2,8.1,0.4,8.4-4.2
		C-63.4,378.9-67.6,380.6-69.5,380.1z"/>
	<path id="XMLID_117_" class="st0" d="M43.2,399.6c-0.1-11.7,7.4-18.5,18.2-16.6c3.1,0.6,3.3-0.3,3.5-2.7c0.1-1.5,0.7-3.1,1.3-4.5
		c1.2-2.9,3.8-1.7,5.8-1.5c2.8,0.2,1.2,2.6,0.9,3.7c-1.8,9-3.9,17.9-5.8,26.9c-0.3,1.2-0.1,3-1.2,3.2c-5.7,0.8-11.7,2.5-17.1,1.5
		C44.8,408.8,42,404.2,43.2,399.6z M62.5,393.7c0-2.9-0.7-5.1-4.2-5.2c-3.9-0.1-7.8,4.8-7.6,9.8c0.1,2.7,1.2,5.2,4.4,5.4
		C59,404,62.6,398.9,62.5,393.7z"/>
	<path id="XMLID_114_" class="st0" d="M30.7,382.6c9.9,0,11.1,1.5,9,11.4c-0.7,3.5-1.9,7.1-1.8,10.6c0.2,4.4-1.8,5-5.1,4.4
		c-3.2-0.6-5.9-0.3-9,1c-4.1,1.7-8-0.2-9.5-4.8c-1.2-3.6,2.8-9.7,7.3-11c2.6-0.8,5.4-1.1,8.2-1.6c1.6-0.3,3.6-0.9,3.1-2.8
		c-0.5-2-2.7-0.9-4.2-1.2c-2.1-0.4-3.1,1.4-4.5,2.5c-1.7,1.4-3.7,1.7-5.5,0.3c-2.3-1.9,0.2-3.1,1.1-4.4
		C22.7,382.7,23,382.6,30.7,382.6z M31.9,399.4c0.3-1.9-0.7-2.4-2.1-2.1c-2.8,0.6-6.2,0.4-7.2,4.1c-0.5,2,0.8,3,2.7,2.9
		C28.7,404.1,30.7,402.2,31.9,399.4z"/>
	<path id="XMLID_111_" class="st0" d="M86.9,382.6c10.5,0,12,1.8,10.1,11.3c-0.8,3.7-2.2,7.4-2.1,11.1c0.1,5.4-3.6,4.5-5.9,3.5
		c-2.4-1.1-3.8-0.6-5.9,0.2c-4.2,1.5-8.5,2-10.9-2.8c-1.9-3.8,1-9.4,5.6-11.3c2.7-1.1,5.8-1.5,8.7-2.2c1.5-0.4,3.4-0.2,3.6-2.4
		c0-0.6-0.5-1.5-1.1-1.9c-1.5-1-3.1-0.8-4.5,0.3c-1.7,1.4-3.3,3-5.8,2.6c-0.9-0.2-2.3-0.2-2.7-0.8c-0.7-1-0.1-2.2,0.7-3.2
		C79.5,383.4,83,381.6,86.9,382.6z M88.6,399.2c0.1-2.1-1.1-2.2-2.3-1.9c-2.8,0.8-6.3,0.7-6.8,4.5c-0.3,1.7,1.3,2.4,2.8,2.3
		C85.6,404,87.7,402.1,88.6,399.2z"/>
	<path id="XMLID_108_" class="st0" d="M-20.9,382.6c9.5,0,11.3,2.3,9.2,11.6c-0.8,3.7-1.8,7.4-1.9,11.2c0,3.6-1.8,3.7-4.5,3.7
		c-2.9,0-5.5-1.1-8.7-0.1c-4.1,1.2-8.7,0.9-10.5-4.2c-1.2-3.3,2.8-9.2,7.1-10.5c2.7-0.8,5.5-0.9,8.2-1.5c1.5-0.3,3.5-0.3,3.6-2.5
		c0-0.6-0.5-1.5-1.1-1.9c-1.5-1.1-3.1-0.7-4.5,0.1c-1.7,1-2.7,2.8-5.1,2.7c-3.3-0.1-4.6-0.9-2.7-4.2
		C-29.7,383.2-28.5,382.6-20.9,382.6z M-25.3,404.3c2.5-0.7,5-2.1,5.6-5.5c0.2-1.2-0.8-1.8-2-1.5c-2.9,0.9-6.8,0.6-7.3,4.9
		C-29.1,404-27.5,404.3-25.3,404.3z"/>
	<path id="XMLID_107_" class="st0" d="M-0.1,403c4.1,0,6.5-0.1,8.8,0c1.4,0.1,3.8-0.9,3.5,1.7c-0.2,1.7-0.1,4.3-3.1,4.2
		c-5.8-0.1-11.7,0.4-17.4-0.2c-4.5-0.5-3.1-4.1-1.5-6.2c2-2.6,4-5.2,7.4-6.6c2.2-0.9,4-3.1,5.2-5.6c-1.8-1.4-3.6-0.6-5.3-0.7
		c-2.1-0.1-3.8-0.8-3.6-3.1c0.2-2,1.1-4,3.7-4c5.4-0.1,10.8-0.1,16.2,0c3.5,0,2.6,2.1,1.7,4.1c-1.7,3.8-5.1,6.1-7.9,8.9
		C5.5,397.7,3.3,399.7-0.1,403z"/>
	<path id="XMLID_106_" class="st0" d="M-51.4,409c-3,0.1-4.7-0.1-3.5-4c1.9-6.2,3.1-12.6,4-19c0.4-3.2,2-3.3,4.4-3.3
		c2.7,0.1,5.4,0.8,8.2,0.1c1.2-0.3,3.8-1.1,3.7,1.4c-0.1,1.7,0,4.8-2.4,5c-10.6,0.7-8.1,9.6-10,15.6C-48,407.4-48.5,409.2-51.4,409z
		"/>
	<path id="XMLID_105_" class="st0" d="M-42.7,308.6c1.1,0.2,3.3,0.3,5.4,0.9c6.3,1.9,10.5,6.8,10.7,12.2c0.2,5.9-3.7,10.7-10.4,13
		c-5.1,1.7-10.3,1.6-15.2-0.4c-5.3-2.2-9.3-5.8-9.4-12c0-6.5,4.1-10.1,9.6-12.4C-49.5,308.8-46.7,308.6-42.7,308.6z"/>
</g>
</svg>
