<?xml version="1.0" encoding="utf-8"?>
<!-- Generator: Adobe Illustrator 19.0.0, SVG Export Plug-In . SVG Version: 6.00 Build 0)  -->
<svg version="1.1" id="Layer_1" xmlns="http://www.w3.org/2000/svg" xmlns:xlink="http://www.w3.org/1999/xlink" x="0px" y="0px"
	 viewBox="0 0 100 100" style="enable-background:new 0 0 100 100;" xml:space="preserve">
<style type="text/css">
	.st0{fill:#161616;}
</style>
<g id="XMLID_1_">
	<path id="XMLID_24_" class="st0" d="M49.3,3.4c13.3-0.2,25.4,4.5,35.1,14.7c8.8,9.3,13.2,20.5,13,33.3
		c-0.2,13.1-5.2,24.3-14.6,33.3c-9.3,8.8-20.5,13.2-33.3,12.9c-13.1-0.2-24.3-5.2-33.3-14.7C7.3,73.6,3,62.4,3.2,49.6
		C3.5,36.5,8.5,25.3,18,16.3C26.5,8.2,36.8,4,49.3,3.4z M53.2,67.4c0-5.2,0-10.4,0-15.7c0-0.3,0-0.3,0.3-0.3c2.5,0,5.1,0,7.6,0
		c0.1,0,0.2,0,0.2,0c0.1,0,0.2,0,0.2-0.1c0-0.2,0.1-0.3,0.1-0.5c0-0.5,0.2-0.9,0.1-1.4c0-0.1,0-0.2,0-0.2c0.1-0.5,0.2-1,0.2-1.6
		c0-0.1,0-0.2,0-0.2c0.1-0.5,0.2-1.1,0.2-1.6c0-0.1,0-0.2,0-0.3c0.1-0.5,0.2-0.9,0.2-1.4c0-0.5,0.1-0.9,0.2-1.4
		c0.1-0.6,0.1-1.2,0.2-1.9c0.1-0.3,0-0.4-0.3-0.4c-2.9,0-5.9,0-8.8,0c-0.2,0-0.3,0-0.3-0.2c0.1-2.4-0.1-4.7,0.1-7.1
		c0.1-0.6,0.2-1.1,0.5-1.5c0.2-0.3,0.5-0.5,0.9-0.7c0.4-0.2,0.9-0.3,1.3-0.4c0.3-0.1,0.6,0,0.9,0c1.7,0,3.4,0,5.1,0
		c0.4,0,0.5-0.1,0.5-0.5c0-3.4,0-6.7,0-10.1c0-0.3-0.1-0.4-0.4-0.4c-2.7,0-5.4,0-8.1,0c-0.4,0-0.8,0-1.1,0.1c-0.7,0-1.3,0.1-2,0.2
		c-0.2,0-0.4,0-0.6,0.1c-0.4,0.1-0.9,0.2-1.3,0.3c-0.4,0.1-0.7,0.2-1.1,0.3c-0.5,0.2-1,0.4-1.5,0.7c-0.4,0.2-0.8,0.5-1.3,0.8
		c-0.2,0.1-0.4,0.3-0.6,0.5c-0.3,0.2-0.5,0.4-0.7,0.7c-0.2,0.2-0.4,0.5-0.6,0.7c-0.2,0.3-0.4,0.6-0.6,0.9c-0.2,0.3-0.4,0.6-0.5,0.9
		c-0.1,0.2-0.2,0.4-0.3,0.6c-0.2,0.5-0.3,1-0.5,1.5c-0.1,0.1,0,0.3-0.1,0.4c-0.1,0.3-0.2,0.7-0.2,1c0,0.2-0.2,0.5-0.1,0.7
		c0,0.1,0,0.3,0,0.4c-0.1,0.3-0.2,0.7-0.2,1c0,0.3,0,0.6,0,0.9c-0.1,0.6-0.1,1.2-0.1,1.8c0,2.1,0,4.3,0,6.4c0,0.3,0,0.3-0.3,0.3
		c-1.8,0-3.7,0-5.5,0c-0.1,0-0.1,0-0.2,0c-0.1,0-0.2,0.1-0.2,0.2c0,3.5,0,7,0,10.5c0,0.1,0,0.2,0.2,0.2c0.1,0,0.2,0,0.3,0
		c1.8,0,3.6,0,5.4,0c0.4,0,0.4,0,0.4,0.4c0,10.4,0,20.8,0,31.2c0,0.4,0.1,0.4,0.4,0.4c3.9,0,7.8,0,11.7,0c0.4,0,0.4,0,0.4-0.4
		C53.2,77.8,53.2,72.6,53.2,67.4z"/>
</g>
</svg>
