<?xml version="1.0" encoding="utf-8"?>
<!-- Generator: Adobe Illustrator 19.0.0, SVG Export Plug-In . SVG Version: 6.00 Build 0)  -->
<svg version="1.1" id="Layer_1" xmlns="http://www.w3.org/2000/svg" xmlns:xlink="http://www.w3.org/1999/xlink" x="0px" y="0px"
	 viewBox="0 0 300 300" style="enable-background:new 0 0 300 300;" xml:space="preserve">
<style type="text/css">
	.st0{fill:none;stroke:#FFFFFF;stroke-width:3;stroke-miterlimit:10;}
	.st1{fill:none;stroke:#FFFFFF;stroke-width:2;stroke-miterlimit:10;}
</style>
<path id="XMLID_64_" class="st0" d="M250.4,110.9c-0.1,0.2-0.2,0.4-0.3,0.7c-0.9,2.3-2,4.4-2.9,6.6c-0.2,0.2-0.4,0.5-0.5,0.8
	c-0.6,1.2-1.2,2.4-1.8,3.6c-1.3,2.4-2.7,4.8-4.1,7.2c-1.3,2.2-2.6,4.3-4,6.4c-1.3,2-2.7,4-4.1,6c-1.3,1.8-2.6,3.7-3.9,5.4
	c-1.4,1.8-2.7,3.6-4.1,5.3c-1.3,1.6-2.6,3.2-3.9,4.8c-1.4,1.7-2.7,3.3-4.2,4.9c-1.1,1.2-2.1,2.4-3.2,3.6c-0.3,0.3-0.5,0.4-0.8,0
	c-1.3-1.5-2.7-3-4-4.5c-1.3-1.6-2.7-3.1-4-4.7c-1.4-1.7-2.7-3.4-4.1-5.1c-1.3-1.7-2.7-3.4-4-5.2c-1.4-1.9-2.8-3.8-4.1-5.7
	c-1.3-1.9-2.6-3.8-3.9-5.8c-1.5-2.4-2.9-4.8-4.4-7.2c-0.6-0.9-0.9-1.9-1.6-2.7c-0.6-1.3-1.2-2.6-2-3.8c-0.8-1.4-1.4-2.9-2.2-4.3
	c-0.7-1.3-1.2-2.6-1.8-4c-0.8-1.8-1.5-3.7-2.2-5.5c-0.7-1.8-1.1-3.6-1.7-5.4c-1-2.9-1.5-6-2-9c-0.6-3.6-0.7-7.3-0.3-11
	c0.2-1,0.3-2.1,0.6-3.1c0.6-2.4,1-4.8,2.1-7c0.7-1.5,1.3-3,2.1-4.4c1.2-2,2.5-3.9,3.9-5.7c1.8-2.2,3.9-4.2,6.1-6
	c1.6-1.3,3.4-2.5,5.2-3.6c4.7-2.7,9.7-4.6,15.1-5.4c5.8-1,11.5-0.8,17.3,0.4c2.7,0.6,5.3,1.4,7.9,2.5c2.9,1.2,5.6,2.7,8.1,4.5
	c1.4,1,2.7,2,4,3.2c1.5,1.3,2.8,2.7,4,4.2c1.6,1.9,2.9,3.9,4.2,6.1c0.8,1.4,1.3,2.8,2,4.3c1,2.2,1.5,4.5,2,6.8c1,4.3,1,8.6,0.4,12.9
	c-0.4,3.5-1.1,7-2.1,10.4c-0.6,2-1.1,4-1.9,5.9C251,109.2,250.6,110,250.4,110.9z"/>
<path id="XMLID_7_" class="st1" d="M105.1,219.1c-1.8-1.3-1.4-3.1-1.9-5.1c-1.5-5.5-3.8-10.6-6.4-15.6c-2.9-5.6-3.1-10.5-3.3-16.7
	c-0.2-4.9-1.3-9.2-5.6-12c-4.8-3.2-10.9-3.8-15.9-6.6c-4.2-2.4-10.8-3.7-14.1-12.6"/>
<path id="XMLID_6_" class="st1" d="M95.2,70.2c6.3-1.8,15.5-2.7,18.5-2.6c5.4,0.1,10.2,2.1,14.4,5.4c2.6,2.1,7,5.6,6.5,9.4
	c-0.3,2.2-2.1,2.9-4.1,3.1c-2.7,0.2-6,0.4-8.5-0.5c-2.1-0.8-3-2.6-4.7-4c-2.1-1.7-4.4-1.1-6.6,0.1c-4.6,2.5-8.3,6.8-11,11.3
	c-2,3.4-3.5,8-2,11.8c1.8,4.5,6,4.4,9.6,2.1c4.1-2.6,7.5-5.9,11.7-8.3c5-2.8,10.2-1.7,14.5,1.9c3.6,2.9,7.3,8.1,7.1,12.9
	c-0.2,5.5-6.5,8.9-10.8,10.9c-2.2,1-4.5,2-6.7,2.9c-1.2,0.5-2.4,1.1-3.7,1.2c-1.4,0.2-2.5-0.4-3.8-0.4c-4.6-0.2-10.1,5.3-12.3,9
	c-3,5-2.9,11.4-3.5,17c-0.2,1.4-0.1,3.7-0.9,5c-1.1,1.7-2.2,0.3-2.4-1.3c-0.4-2.4,0.1-4.6-1.1-6.9c-1-1.9-2.7-3-4.7-3.7
	c-4-1.5-9.5-3.6-12.8,0c-2.1,2.3-5.9,10.6-0.1,10.8c2.2,0.1,4.9-1.6,6.7,0.5c0.7,0.8,0.8,1.9,1.1,2.9c0.6,1.4,1.6,2.8,2.6,4.1
	c1.6,2.1,3.3,3.7,6,4c2.9,0.3,6.1,0,9,0c6.2,0,12.1-0.5,18,1.4c2.1,0.7,4.8,1.3,6.3,3.1c1.6,1.9,1.4,4.7,3,6.6
	c3.2,4.1,9.8,5.1,14.5,6.2c2.1,0.5,4.6,0.8,6.2,2.3c1.8,1.7,2.4,4.5,2.3,6.8c-0.1,2.9-1.4,5.6-2.4,8.3c-0.9,2.5-1.8,5.1-3.6,7.2
	c-1.8,1.9-4.2,2.9-6.4,4.2c-2.5,1.5-4.2,3.6-6.1,5.8c-1.6,1.8-5,5.5-6.1,7.6"/>
<path id="XMLID_61_" class="st1" d="M210.4,214c-2.2-6.6-2.5-7.4-3.8-11.2c-1.3-3.8-3-7.5-3.9-11.4c-0.9-3.7-1.3-7.8-3.8-10.8
	c-1.9-2.4-5-3.7-7.9-4.5c-6.5-1.8-14,0.4-19.9-3.3c-3.4-2.1-4.5-5.4-4.4-9.2c0-1.6,0-3.3,0.6-4.9c0.7-1.8,1.9-3.3,2.9-4.9
	c2.2-3.7,4.2-7.6,6.2-11.4c1.9-3.5,3.7-7.1,3.8-11.2c0-1.2,1.2-3.5,3-5.1"/>
<path id="XMLID_5_" class="st1" d="M170.5,82.4c-4,2.2-7.2,5.7-11.2,8c-1.2,0.7-3.9,2.6-5.4,1.4c-1.2-1-1.6-4.1-1.8-5.6
	c-0.2-2.2-0.3-4.6,0-6.8c0.3-2.2,1.3-4.2,1.9-6.3c1.2-4.5,0-9.2-0.5-13.7c-0.3-2.7-1.4-2.1-4-2.5c-2-0.3-4.9-2.5-5.2-4.9"/>
<path id="XMLID_2_" class="st1" d="M246.7,119c2.2,8.6,2.8,13.5,2.8,22.4c0,49.7-43,90-96,90s-96-40.3-96-90s43-90,96-90
	c11.1,0,21.7,1.8,31.6,5"/>
<circle id="XMLID_4_" class="st0" cx="212.9" cy="86.6" r="17.9"/>
</svg>
